<svg id="Layer_2" data-name="Layer 2" xmlns="http://www.w3.org/2000/svg" viewBox="0 0 2626 512.18"><defs><style>.cls-1{fill:none;stroke:#231f20;stroke-miterlimit:10;}.cls-2{font-size:70px;fill:#a7a9ac;font-family:Helvetica-Bold, Helvetica;font-weight:700;}</style></defs><title>Maindeck</title><path class="cls-1" d="M2626,256.13a28.69,28.69,0,0,1-3.07,12.63c-6.41,11.62-28.38,24.8-28.38,24.8-45.68,26.87-114.18,49.93-114.18,49.93-258,76.82-300.79,83.35-500.1,115.24s-379.6,45.12-379.6,45.12c-74.72,5.91-276.46,8.76-303.3,8.39s-175.63-1.95-262.83-3S228.84,490.88,226,490.88s-2.25-1.94-2.25-1.94v-5.69l-122-3.13-2.15-1.53H71.74l-1.9-1.89L41.6,475.18C22.46,459.45,4.84,418,3.13,411.5S.86,371.14.86,371.14l20.46-9.29C16.4,308.78,17,256.13,17,256.13s-.56-52.64,4.36-105.71L.86,141.13s.56-33.92,2.27-40.36S22.46,52.82,41.6,37.09l28.24-1.52,1.9-1.9H99.6l2.15-1.52,122-3.14V23.33s-.6-1.94,2.25-1.94S947.34,4.05,1034.54,3s236-2.61,262.83-3S1526,2.51,1600.67,8.42c0,0,180.28,13.23,379.6,45.12S2222.35,92,2480.37,168.78c0,0,68.5,23.06,114.18,49.93,0,0,22,13.18,28.38,24.8A28.62,28.62,0,0,1,2626,256.13Z"/><text class="cls-2" transform="translate(1124.4 269.35)">MAINDECK</text></svg>