<svg id="Layer_2" data-name="Layer 2" xmlns="http://www.w3.org/2000/svg" viewBox="0 0 2626.04 547.05"><defs><style>.cls-1{fill:none;stroke:#231f20;stroke-miterlimit:10;}.cls-2{font-size:70px;fill:#a7a9ac;font-family:Helvetica-Bold, Helvetica;font-weight:700;}</style></defs><title>Upperdeck</title><path class="cls-1" d="M2626,273.52c0,13.41-11,22-11,22-29.18,24.82-104.31,57-201.92,86.54s-215.68,54-240.5,58.7-146.91,28.85-174.75,33.54-145.58,20.8-145.58,20.8l-151.94,17.78s-70.44,34.21-161,34.21-133.2-17.1-133.2-17.1h-57.11s-303-1.44-384.49-3.38-737.4-19.12-739.18-19.12-1.35-1.25-1.35-1.25v-5.95c-14.32-.38-143.45-4-143.45-4l-1.24-.67H72.29l-2-1.69-28.57-1.63C17.2,469,4,433,2.51,428.09S.32,388.61.32,388.61l20.72-10c-3.21-37.11-3.82-78.79-3.82-105.09s.61-68,3.82-105.08l-20.72-10S1,123.86,2.51,119,17.2,78.07,41.69,54.81l28.57-1.63,2-1.69h7.08l1.24-.67s129.13-3.64,143.45-4V40.85s-.43-1.25,1.35-1.25,657.7-17.18,739.18-19.12,384.49-3.39,384.49-3.39h57.11S1448.82,0,1539.39,0s161,34.21,161,34.21L1852.33,52s117.74,16.1,145.58,20.8,149.93,28.84,174.75,33.54,142.89,29.18,240.5,58.7,172.74,61.71,201.92,86.54C2615.08,251.57,2626,260.12,2626,273.52Z"/><text class="cls-2" transform="translate(1093.26 286.79)">UPPERDECK</text></svg>