<svg id="Layer_2" data-name="Layer 2" xmlns="http://www.w3.org/2000/svg" viewBox="0 0 2624.72 549.38"><defs><style>.cls-1{fill:none;stroke:#231f20;stroke-miterlimit:10;}.cls-2{font-size:70px;fill:#a7a9ac;font-family:Helvetica-Bold, Helvetica;font-weight:700;}</style></defs><title>Sundeck</title><path class="cls-1" d="M2626,274.69a30.52,30.52,0,0,1-1.28,8.71c-5,11.81-21.88,22.44-21.88,22.44-85.7,53.08-238.59,95.44-409,132.44s-253.68,46.26-253.68,46.26L1701.24,514s-10.57,5.5-37.54,14.31-65.13,20.83-133.74,21.09-127.57-19.23-127.57-19.23c-13,0-297,0-417.85-2.63S226.47,509.88,224.8,509.88a1.28,1.28,0,0,1-1.39-1.56v-6.4c-14.84,0-145.16-3.48-145.16-3.48l-1.35-1H71.32l-2.46-1.77s-16.55-.44-22.43-.61-6.72-2.27-6.72-2.27C18.79,473.61,5,436.73,3.19,430.7S0,391,0,391l21.63-11c-3.9-35.11-3.55-105.31-3.55-105.31s-.35-70.21,3.55-105.31L0,158.39s1.42-33.69,3.19-39.72,15.6-42.9,36.52-62c0,0,.85-2.11,6.72-2.28s22.43-.61,22.43-.61L71.32,52H76.9l1.35-1s130.32-3.48,145.16-3.48v-6.4a1.28,1.28,0,0,1,1.39-1.56c1.67,0,638.88-15,759.74-17.63s404.85-2.62,417.85-2.62c0,0,59-19.5,127.57-19.24s106.78,12.28,133.74,21.09,37.54,14.31,37.54,14.31l238.92,29.44s83.26,9.25,253.68,46.25,323.3,79.37,409,132.44c0,0,16.9,10.64,21.88,22.45A30.44,30.44,0,0,1,2626,274.69Z"/><text class="cls-2" transform="translate(1139.29 287.95)">SUNDECK</text></svg>