<svg id="Layer_2" data-name="Layer 2" xmlns="http://www.w3.org/2000/svg" viewBox="0 0 2011.7 779.16"><defs><style>.cls-1{fill:none;}.cls-1,.cls-2{stroke:#231f20;stroke-miterlimit:10;}.cls-2{fill:#fff;}.cls-3{font-size:70px;fill:#a7a9ac;font-family:Helvetica-Bold, Helvetica;font-weight:700;}.cls-4{letter-spacing:-0.07em;}</style></defs><title>Starboard</title><path class="cls-1" d="M2011.7,650.41v-6.6h-19.79V577.69s-4.31-26.82-29.84-48.19c0,0-1.1-1-4.08-1h-6.39l-1.55-1.46s-112.5-5.65-130.44-6.24-213.18-8.63-254.06-5.61l-54.21,28s-25,13.3-35,14.27-228,.18-228,.18-13.72,1.19-30.51-8-64.38-33.4-64.38-33.4h-93s-6.86,1.3-29.72-9.47-65-34-65-34v-3.92h933.83s1.87-.1.7-2.09-14.54-12.43-14.54-12.43v-1.17h-5.39v1.17h-4.92v-2.11h1.52V446h-6v5.51s-9.6-9.36-19.7-13.06l-1.68-2.47-14.93-.79h-13.75s-177.36-15.3-402.4-21.91c0,0-19.3-1.49-29,1s-16,7.4-21.42,7.4H1063.76s-10,.37-16.59-.76c-5-.85-26-9-35.84-12.84a29.07,29.07,0,0,0-10.62-2H657l-34.14,16.5s-91.21,7.46-117.78,9.93-65.17,7-65.17,7v-5.78s.63-1.86-2.87-1.86-81.62,7.64-90.82,9.39-29.51,6.28-34.47,11c0,0-3.39,2.79,2.69,2.79h2.19v4.39h-281L0,476.15,180.85,662.74s7.46,8.45,7.46,10.19-2.74,7.45-6.46,8.69-16.9,1.5-31.56-3a189.39,189.39,0,0,0-51.67-7.45c-17.39,0-25.38,6.42-29.06,20S69,719.73,87.25,738,194.5,772.6,221,772.6s87.52,4.22,338.54,4.22,656.7,2.34,656.7,2.34l3.5-3.11s121.24-7,234.71-19.82,201.28-28.76,201.28-28.76l279-42,.39,5.44,48.57.78v-8.94h15.94l-5.06-24.87-.22-7.68Z"/><polyline class="cls-1" points="1999.64 682.79 1813.33 779.16 1216.26 779.16"/><line class="cls-2" x1="1591.02" y1="468.46" x2="1591.02" y2="514.54"/><path class="cls-1" d="M1710.8,358.86l-1022.86-.71V352s18.68-10.76,131-25.05l51.43-18h4.17V300h289.63s29.33-15.92,100.71-39l3.22,1.45,5.25-1.93-2.69-1.38,27.8-8.17-11.86-6.88H1151s1.7-3.58,14.31-11.11l93-4.29,3.73-3.19,82.49-1.77,4.08,2.48h21.93l2.26,1.93s55.27,1,77,2.54c0,0,9.45,7.19,14.1,12.55h-50.4l-46.57,11.83V268h33.6a41.44,41.44,0,0,1,12.39,8.57h-47.1v21.06s69,8.42,80,15.7h-6.43v3s166.19,6.08,199.27,9.56,42,12.09,48.65,18.48l.87.9h10.76L1710.8,356Z"/><line class="cls-1" x1="732.36" y1="358.86" x2="732.36" y2="406.12"/><line class="cls-1" x1="1554.45" y1="358.86" x2="1554.45" y2="418.46"/><path class="cls-1" d="M1317.35,223.74l10.63-14a116.59,116.59,0,0,1,3.84-28.7l-44.69-.92,5.17-7.81h41.59c8.73-36.87,14.18-36.83,14.18-36.83h2.3v-6.77l-25-2v2h-4.8V122.5h13.65v-6.31c-20.62,0-20.18,4.55-20.18,4.55l-.29-3.15-3.38,2V109.52l3.71,2v-1.45c4,4.41,20.14,3.36,20.14,3.36v-6.89h-11.1a3.43,3.43,0,0,0-3.71,3.4h-1.26V93.34h-3.29l-4-4V86.07H1314L1300.94,73V71h-2.1v-2.6h1.52V46.77s3-25.22,25.77-25.22,25.78,25.22,25.78,25.22V68.43H1354v2.75h-2.72v2l-12.61,12.6h4l2.54,1.88h8V79.35h2.68v-62h-7.78V15.24h1.48V6h-1.74V1.43H1353V6.12h-1.34v9.12h3.83v-1h6.42V79.3h1.62L1364.7,0h.81l.45,80.38h1.16V73.65s-.17-4.58,3.33-4.58,3.86,2.87,3.86,4.22v5.39l.81.09v2.06h2.06l5.3-3.14h5.75V63.59h1.44V77.74h3.76V81H1383l-6.34,3.79h-10.47v62.91a11.58,11.58,0,0,1,2.32.58l4.54-2.88h6.41l.14-45.64h1.21l1.13,45.08,1.39,1.21v2.1l-.83.82h-9.61L1371,150s5.34,3.81,6.48,6.86c0,0,9.28-2.16,12.33,8.14v2.29h-1.14s-3.94,2.79-6,2.79v3.56h2.42v8.14h-6l-9.4,8.65h4.7v13.27h2.24v11.69h-10.34v10.2"/><text class="cls-3" transform="translate(784.83 402.84)">S<tspan class="cls-4" x="46.69" y="0">T</tspan><tspan x="84.29" y="0">ARBOARD</tspan></text></svg>