<svg id="Layer_2" data-name="Layer 2" xmlns="http://www.w3.org/2000/svg" viewBox="0 0 2011.7 779.16"><defs><style>.cls-1{fill:none;}.cls-1,.cls-2{stroke:#231f20;stroke-miterlimit:10;}.cls-2{fill:#fff;}.cls-3{font-size:70px;fill:#a7a9ac;font-family:Helvetica-Bold, Helvetica;font-weight:700;}</style></defs><title>Port</title><path class="cls-1" d="M0,650.41v-6.6H19.79V577.69s4.31-26.82,29.84-48.19c0,0,1.1-1,4.09-1H60.1l1.55-1.46s112.5-5.65,130.44-6.24,213.18-8.63,254.06-5.61l54.21,28s25,13.3,35,14.27,228,.18,228,.18,13.72,1.19,30.51-8,64.38-33.4,64.38-33.4h93s6.86,1.3,29.72-9.47,65-34,65-34v-3.92H112.16s-1.87-.1-.7-2.09S126,454.33,126,454.33v-1.17h5.39v1.17h4.92v-2.11h-1.52V446h6v5.51s9.6-9.36,19.7-13.06l1.68-2.47,14.93-.79h13.75s177.36-15.3,402.4-21.91c0,0,19.3-1.49,29,1s16,7.4,21.42,7.4H947.94s10,.37,16.59-.76c5-.85,26-9,35.84-12.84a29.07,29.07,0,0,1,10.62-2h343.73l34.14,16.5s91.21,7.46,117.78,9.93,65.17,7,65.17,7v-5.78s-.62-1.86,2.87-1.86,81.62,7.64,90.83,9.39,29.5,6.28,34.46,11c0,0,3.39,2.79-2.69,2.79h-2.19v4.39h281l35.61,16.7L1830.85,662.74s-7.46,8.45-7.46,10.19,2.74,7.45,6.46,8.69,16.9,1.5,31.56-3a189.39,189.39,0,0,1,51.67-7.45c17.39,0,25.38,6.42,29.06,20s.54,28.54-17.69,46.76S1817.2,772.6,1790.69,772.6s-87.52,4.22-338.54,4.22-656.7,2.34-656.7,2.34l-3.5-3.11s-121.24-7-234.7-19.82S356,727.47,356,727.47l-279-42L76.57,691,28,691.73v-8.94H12.06l5.06-24.87.23-7.68Z"/><polyline class="cls-1" points="12.06 682.79 198.37 779.16 795.45 779.16"/><line class="cls-2" x1="420.68" y1="468.46" x2="420.68" y2="514.54"/><path class="cls-1" d="M300.9,358.86l1022.86-.71V352s-18.68-10.76-131-25.05l-51.43-18h-4.17V300H847.54s-29.33-15.92-100.71-39l-3.22,1.45-5.25-1.93,2.69-1.38L713.26,251l11.85-6.88H860.68S859,240.52,846.37,233l-93-4.29-3.72-3.19-82.5-1.77-4.08,2.48H641.16l-2.26,1.93s-55.27,1-77,2.54c0,0-9.45,7.19-14.1,12.55h50.4l46.57,11.83V268h-33.6a41.44,41.44,0,0,0-12.39,8.57h47.11v21.06s-69,8.42-80,15.7h6.43v3S406.12,322.38,373,325.86s-42,12.09-48.65,18.48l-.87.9H312.76L300.9,356Z"/><line class="cls-1" x1="1279.34" y1="358.86" x2="1279.34" y2="406.12"/><line class="cls-1" x1="457.25" y1="358.86" x2="457.25" y2="418.46"/><path class="cls-1" d="M694.35,223.74l-10.63-14a116.59,116.59,0,0,0-3.84-28.7l44.69-.92-5.17-7.81H677.81c-8.73-36.87-14.18-36.83-14.18-36.83h-2.3v-6.77l25-2v2h4.8V122.5H677.48v-6.31c20.62,0,20.18,4.55,20.18,4.55l.29-3.15,3.38,2V109.52l-3.71,2v-1.45c-4,4.41-20.14,3.36-20.14,3.36v-6.89h11.1a3.43,3.43,0,0,1,3.71,3.4h1.26V93.34h3.29l4-4V86.07h-3.15L710.76,73V71h2.1v-2.6h-1.52V46.77s-3-25.22-25.77-25.22-25.78,25.22-25.78,25.22V68.43h-2.06v2.75h2.72v2l12.61,12.6h-4l-2.54,1.88h-8V79.35h-2.68v-62h7.78V15.24h-1.48V6h1.74V1.43h-5.09V6.12h1.34v9.12h-3.83v-1h-6.41V79.3h-1.63L647,0h-.81l-.45,80.38h-1.16V73.65s.18-4.58-3.33-4.58-3.86,2.87-3.86,4.22v5.39l-.81.09v2.06h-2.06l-5.3-3.14h-5.75V63.59H622V77.74h-3.76V81h10.47l6.34,3.79h10.47v62.91a11.58,11.58,0,0,0-2.32.58l-4.54-2.88h-6.4l-.15-45.64h-1.21l-1.13,45.08L628.41,146v2.1l.83.82h9.61l1.83,1.08s-5.34,3.81-6.48,6.86c0,0-9.28-2.16-12.33,8.14v2.29H623s3.94,2.79,6,2.79v3.56h-2.42v8.14h6l9.4,8.65h-4.7v13.27H635v11.69h10.34v10.2"/><text class="cls-3" transform="translate(908.63 402.84)">PORT</text></svg>