<svg id="Layer_2" data-name="Layer 2" xmlns="http://www.w3.org/2000/svg" viewBox="0 0 2709.5 492.87"><defs><style>.cls-1{fill:none;stroke:#231f20;stroke-miterlimit:10;}.cls-2{font-size:70px;fill:#a7a9ac;font-family:Helvetica-Bold, Helvetica;font-weight:700;}</style></defs><title>Lowerdeck</title><path class="cls-1" d="M129.15,400.56s12.36,39.06,37.45,64.15l28.64,1.47,2.2,1.95s355.26,9.48,425,10.78,306.18,8.25,325.58,8.25,237.36,5.44,340.54,5.44,335.2.61,380.38,0,242.39-17.1,272.92-20.76,202.7-20.76,432.88-75.1c0,0,194.66-48,277.77-99.42,0,0,39.3-21.94,48.28-31.38s8.75-17.6,8.75-19.51.23-10.06-8.75-19.5-48.28-31.39-48.28-31.39c-83.11-51.38-277.77-99.41-277.77-99.41C2144.52,41.79,1972.35,24.69,1941.82,21S1714.08.88,1668.9.27s-277.19,0-380.38,0S967.37,5.71,948,5.71,692.11,12.66,622.4,14s-425,10.78-425,10.78l-2.2,2L166.6,28.16c-25.09,25.09-37.45,64.15-37.45,64.15H63a3,3,0,0,0-3.21,3.24h-57C-.53,95.55,0,98.27,0,98.27v28.16c0,3,2.58,2.58,2.58,2.58H60a3.24,3.24,0,0,0,3.57,3.57H127.7L147,141.37H28.51c-6.47,0-5.72,5.7-5.72,5.7V347.8s-.75,5.7,5.72,5.7H147l-19.28,8.78Z"/><text class="cls-2" transform="translate(1125.32 259.7)">LOWERDECK</text></svg>